<?xml version="1.0" encoding="UTF-8"?>
<svg id="Layer_1" xmlns="http://www.w3.org/2000/svg" xmlns:xlink="http://www.w3.org/1999/xlink" version="1.1" viewBox="0 0 740.2 687.81">
  <!-- Generator: Adobe Illustrator 29.8.2, SVG Export Plug-In . SVG Version: 2.1.1 Build 3)  -->
  <defs>
    <style>
      .st0 {
        fill: #ccc;
        stroke: #ccc;
        stroke-width: 10px;
      }

      .st0, .st1, .st2 {
        stroke-miterlimit: 10;
      }

      .st3 {
        fill: url(#linear-gradient2);
      }

      .st4 {
        fill: url(#linear-gradient1);
      }

      .st5 {
        fill: url(#linear-gradient3);
      }

      .st6 {
        fill: #f0f;
      }

      .st7 {
        fill: url(#linear-gradient);
      }

      .st8 {
        fill: red;
      }

      .st9 {
        fill: #7ef924;
      }

      .st1 {
        stroke: #333;
        stroke-width: 10px;
      }

      .st1, .st10 {
        fill: #fff;
      }

      .st2 {
        fill: #aeb7d5;
        stroke: #aeb7d5;
        stroke-width: 10px;
      }

      .st11 {
        fill: #333;
      }
    </style>
    <linearGradient id="linear-gradient" x1="75.07" y1="267.53" x2="137.3" y2="438.5" gradientUnits="userSpaceOnUse">
      <stop offset="0" stop-color="#fff"/>
      <stop offset="1" stop-color="#000"/>
    </linearGradient>
    <linearGradient id="linear-gradient1" x1="-.26" y1="261.64" x2="61.97" y2="432.61" gradientTransform="translate(665.95) rotate(-180) scale(1 -1)" gradientUnits="userSpaceOnUse">
      <stop offset="0" stop-color="#fff"/>
      <stop offset="1" stop-color="#000"/>
    </linearGradient>
    <linearGradient id="linear-gradient2" x1="189.58" y1="353.93" x2="227.1" y2="457.02" xlink:href="#linear-gradient"/>
    <linearGradient id="linear-gradient3" x1="513.58" y1="353.93" x2="551.1" y2="457.02" xlink:href="#linear-gradient"/>
  </defs>
  <g id="clarkson-arms">
    <path class="st7" d="M171.07,426.21c-48.86-7.54-88.5-34.73-114.62-78.62-19.44-32.67-24.52-63.01-24.73-64.28l25.66-4.19c.04.27,4.7,27.42,21.85,55.92,22.33,37.09,54.56,59.12,95.79,65.48l-3.96,25.7Z"/>
    <path class="st4" d="M570.21,420.32l-3.96-25.7c41.24-6.36,73.47-28.39,95.79-65.48,17.15-28.49,21.81-55.65,21.85-55.92l25.66,4.19c-.21,1.28-5.29,31.62-24.73,64.28-26.12,43.9-65.75,71.09-114.62,78.62Z"/>
  </g>
  <g id="clarkson-shoulders">
    <circle class="st3" cx="208.34" cy="405.47" r="54.84"/>
    <circle class="st5" cx="532.34" cy="405.47" r="54.84"/>
  </g>
  <polygon id="clarkson-antenna" class="st11" points="376.36 81.82 318.07 21.1 326.72 12.79 376.85 65.01 433.52 12.54 441.67 21.34 376.36 81.82"/>
  <rect id="clarkson-head" class="st2" x="218.23" y="77.93" width="300.42" height="207.81" rx="53" ry="53"/>
  <path id="clarkson-body" class="st0" d="M299.46,313.78h137.1c52.86,0,95.78,42.92,95.78,95.78v278.25H203.68v-278.25c0-52.86,42.92-95.78,95.78-95.78Z"/>
  <g id="clarkson-hands">
    <circle class="st9" cx="704.51" cy="267.66" r="30.92"/>
    <circle class="st9" cx="39.34" cy="267.66" r="30.92"/>
  </g>
  <rect id="clarkson-neck" class="st6" x="307.43" y="285.74" width="129.12" height="28.04" rx="14.02" ry="14.02"/>
  <rect id="clarkson-face" class="st11" x="257.08" y="113.38" width="229.83" height="84.14" rx="42.07" ry="42.07"/>
  <path id="clarkson-mouth" class="st1" d="M402.89,230.4c0,19.02-15.42,34.45-34.45,34.45s-34.45-15.42-34.45-34.45h68.89Z"/>
  <circle class="st10" cx="305.45" cy="155.29" r="14.12"/>
  <circle class="st10" cx="445.22" cy="155.29" r="14.12"/>
  <g id="clarkson-pupils">
    <circle class="st8" cx="305.93" cy="155.15" r="9.61"/>
    <circle class="st8" cx="445.22" cy="155.45" r="9.61"/>
  </g>
  <g id="clarkson-ears">
    <rect class="st9" x="167.36" y="131.29" width="43.98" height="107.29" rx="18.64" ry="18.64"/>
    <rect class="st9" x="524.55" y="131.29" width="43.98" height="107.29" rx="18.64" ry="18.64"/>
  </g>
</svg>